PathFileType	4	(X/Y/Z)	/Users/visionmauri/1_7_1_f_Sports2D/1_7_1_f_Sports2D_px_person00.trc
DataRate	CameraRate	NumFrames	NumMarkers	Units	OrigDataRate	OrigDataStartFrame	OrigNumFrames
30.0	30.0	12	22	m	30.0	194	389
Frame#	Time	Hip			RHip			RKnee			RAnkle			RBigToe			RSmallToe			RHeel			LHip			LKnee			LAnkle			LBigToe			LSmallToe			LHeel			Neck			Head			Nose			RShoulder			RElbow			RWrist			LShoulder			LElbow			LWrist			
		X1	Y1	Z1	X2	Y2	Z2	X3	Y3	Z3	X4	Y4	Z4	X5	Y5	Z5	X6	Y6	Z6	X7	Y7	Z7	X8	Y8	Z8	X9	Y9	Z9	X10	Y10	Z10	X11	Y11	Z11	X12	Y12	Z12	X13	Y13	Z13	X14	Y14	Z14	X15	Y15	Z15	X16	Y16	Z16	X17	Y17	Z17	X18	Y18	Z18	X19	Y19	Z19	X20	Y20	Z20	X21	Y21	Z21	X22	Y22	Z22
194	6.483333333333333	613.6102707231414	833.7910566801938	0.0	573.6925648946235	837.7855494817271	0.0	558.0636497851829	1022.2253377970266	0.0	601.601662632885	1202.6245860535946	0.0	543.7234906283904	1256.7986599434726	0.0	539.205217260568	1247.721586655292	0.0	627.1283537270771	1228.9817720912795	0.0	653.8048035944378	834.3978260126705	0.0	645.9589884683974	1020.342692714357	0.0	639.9026558968291	1220.1876720981363	0.0	568.6733022075763	1261.2708688685202	0.0	580.3465473742781	1266.0860510041127	0.0	646.5091663541189	1244.7898724906133	0.0	576.6524713595005	563.266063511193	0.0	470.1899928457232	480.50026751484614	0.0	508.9442629468331	567.305219405537	0.0	532.4151625684475	588.2272912863899	0.0	538.9330150174376	705.9492271641105	0.0	484.99913952939903	796.9427755676556	0.0	655.3709342584513	576.878657718789	0.0	706.12394858173	723.8432150118091	0.0	667.6657361213013	834.6220283161689	0.0
195	6.516752577319587	610.3525444287216	830.3991948404185	0.0	569.692298158712	835.0642494885798	0.0	558.1887263400112	1020.2880729638385	0.0	601.0752071838398	1203.8205769479066	0.0	543.9227142941063	1256.2828218515547	0.0	538.8793686996281	1245.8478372870527	0.0	627.2592023789316	1229.211858455876	0.0	651.6032353330255	829.5769665143227	0.0	645.8804853374941	1014.5612446422621	0.0	640.184488906462	1214.6801549554177	0.0	570.7002065281206	1259.6084906443932	0.0	581.0011069982577	1260.5179320780994	0.0	645.0726385638711	1240.4633470776769	0.0	575.6374259338869	561.7918219222203	0.0	470.4883906359675	477.7050239456507	0.0	510.18825059980423	565.3622683495423	0.0	527.6519882459665	586.4667419296953	0.0	534.6181357707795	703.5259353800907	0.0	482.68966461684016	794.6840062841305	0.0	654.961365903768	573.7770496223312	0.0	707.5038051601538	717.0030811998654	0.0	673.7970342434675	827.9594437436559	0.0
196	6.550171821305842	607.1383490274616	825.0649486868258	0.0	565.5367631444044	830.313516479123	0.0	558.7924541274533	1016.9244711631901	0.0	600.7001828191384	1204.2604407755557	0.0	545.232639723366	1256.3021914485248	0.0	538.6297031346182	1245.7005547656233	0.0	627.356088983202	1229.7351606044738	0.0	648.8833035784729	823.1613287332566	0.0	641.4722616437946	1006.7263543802004	0.0	638.8694369044254	1207.5528391415971	0.0	574.3425318491832	1256.8460495057889	0.0	581.6812329063868	1253.9369237780304	0.0	643.021895749899	1233.6828764960965	0.0	576.145976820939	560.9942122793739	0.0	472.5949795634907	475.0001467254396	0.0	513.3993118777427	563.5661751214261	0.0	524.5773864298919	585.7919777626119	0.0	530.3068603066532	701.580361919188	0.0	479.8962633803617	790.663095494304	0.0	654.4903247465683	570.9123831937508	0.0	708.8530371350631	710.2915630534397	0.0	681.4603257369674	815.9446441165893	0.0
197	6.583591065292096	604.4798870124963	821.675249455507	0.0	562.2676765589929	827.2500464123156	0.0	559.4249137798533	1014.1494321544095	0.0	600.7183036263588	1202.9857580714327	0.0	546.8422358641319	1256.8717326732228	0.0	538.5227671343108	1246.5144114392206	0.0	627.7890982627437	1229.436050115896	0.0	645.8587678252364	819.3004779109037	0.0	633.965807487395	1001.4778985130108	0.0	636.4721615668917	1202.2919758512805	0.0	578.2908407681582	1253.0633283752181	0.0	582.495570579423	1249.7100147165227	0.0	641.1796797801118	1226.207671933089	0.0	577.6363233481084	560.8128204306884	0.0	476.06567356188447	473.50108679596383	0.0	516.6382869640267	561.926229829655	0.0	523.0174778405828	585.5780814068102	0.0	527.334402935127	700.9214668710171	0.0	476.6030621139204	786.0137911626797	0.0	654.8028683605794	568.5362392207381	0.0	710.9925028852794	705.968504913534	0.0	687.9441123101819	806.2508663672625	0.0
198	6.61701030927835	602.5868039564305	821.0508486265721	0.0	560.0176702833661	826.342893920496	0.0	558.9451480691365	1012.4214900914062	0.0	600.9782789195972	1201.19343147798	0.0	547.7410998842869	1258.2922686228521	0.0	538.9231039691447	1247.9057541652462	0.0	628.5672442499778	1228.8371873438268	0.0	643.4721816883109	818.5274713664207	0.0	627.5604961757731	998.9579880721644	0.0	634.967621853281	1200.0800813883682	0.0	584.3278239812174	1250.1595864959677	0.0	583.5525394872323	1248.353450911762	0.0	640.8914641046268	1222.2214209762187	0.0	578.9278383010566	560.9310257213093	0.0	478.89786283707616	471.9825946266009	0.0	518.4119791117074	560.8952859696136	0.0	521.8407455325719	585.2217679123385	0.0	525.105022715697	701.0037225623566	0.0	473.1208300363079	782.4569922625261	0.0	656.2989203870287	567.353513045779	0.0	714.0726489783589	704.369664624423	0.0	691.3027685655055	805.1963154605884	0.0
199	6.650429553264605	600.9401324288891	821.1623829067628	0.0	558.09829054673	825.4379901644868	0.0	557.5313040383166	1011.2515314944972	0.0	601.1890839860592	1199.78021413519	0.0	548.3034873954155	1259.6873847540764	0.0	540.1885730598805	1249.1015647223762	0.0	628.8297675561726	1228.4848151458593	0.0	642.112657107249	818.145647281508	0.0	625.1222713915223	995.6322876166375	0.0	635.480401686886	1199.8977701514668	0.0	592.7334355189978	1250.37186238007	0.0	585.3677228155724	1249.3131740640918	0.0	642.749311868686	1224.0096026889637	0.0	579.0632759522149	560.9240669991452	0.0	480.1614429048215	469.0768135260042	0.0	519.3789399178021	560.7638469959173	0.0	519.5631977212122	584.5493463726356	0.0	521.9073993793883	700.967931038517	0.0	469.9728726201956	780.3908227708996	0.0	658.3681109457493	567.0614963615191	0.0	717.4211553656004	704.6711925274464	0.0	691.79971405408	811.3461406565139	0.0
200	6.683848797250859	599.4154762406762	820.6536112753219	0.0	556.279081787263	823.7590213426511	0.0	556.4000205830238	1010.6685924118289	0.0	601.1215358186868	1198.0707591253831	0.0	549.4541771699015	1258.8185762437029	0.0	541.9007218078774	1248.404767104443	0.0	627.417711841963	1227.4542164555462	0.0	641.6537756180628	816.5405285842605	0.0	625.7158642273222	990.2469623166925	0.0	637.0902058099649	1200.5434902476932	0.0	596.8554207542544	1254.0789911617933	0.0	589.0432829244244	1252.9236887899876	0.0	645.4648640896133	1228.9732256525963	0.0	578.4369367850375	560.7917388240512	0.0	481.5234583101209	466.34252410579586	0.0	520.9451420148465	560.5738601620652	0.0	516.2228370238906	583.2424423802028	0.0	517.5284209068246	700.2769786385826	0.0	467.8704675068677	778.8061723420589	0.0	660.1368925305594	566.2909055226488	0.0	720.5881879808728	705.6449939365352	0.0	692.3771871610729	819.1091186198255	0.0
201	6.717268041237113	598.497177824194	819.6597051225378	0.0	554.9306554995125	822.101981860001	0.0	555.9013769716396	1010.513895520606	0.0	600.8287187104844	1195.849044376499	0.0	551.36451687271	1255.546219478128	0.0	543.472464881909	1245.540395222499	0.0	624.8019548291267	1225.198115436772	0.0	641.8727447226203	813.9974039373091	0.0	626.4568627077161	983.053694688591	0.0	638.4250880620549	1201.4280267074173	0.0	594.6847371355188	1259.2102480838093	0.0	596.1374151538278	1257.8886123429727	0.0	647.2041848509775	1232.2689700508552	0.0	578.8475130166431	561.2777246711457	0.0	485.181795839827	465.6343330874392	0.0	523.7194674904783	559.7027812800468	0.0	513.5196110754755	581.1054501032424	0.0	512.8418681538225	698.2090234234544	0.0	466.8947555954611	777.4449135457386	0.0	661.6426840506467	564.8988957392146	0.0	723.3830489534856	705.6626271408634	0.0	695.619579919232	823.9342064506319	0.0
202	6.750687285223368	598.3115696228873	818.4999238968637	0.0	554.2481522674741	820.8843887474137	0.0	555.5549890462465	1009.9509447290425	0.0	600.4898316605058	1194.214544770405	0.0	553.4761749743948	1252.8469487462696	0.0	544.8224771500735	1242.9991390378204	0.0	622.7200933431129	1223.2371899203372	0.0	642.6403093710629	811.1151278466075	0.0	627.3247249734086	974.2923818888017	0.0	639.2767514732027	1201.917659157153	0.0	594.457626889671	1262.671805336842	0.0	606.3030629268396	1261.1194913797635	0.0	647.0775607767243	1232.0017795003093	0.0	581.0738087555372	563.37000988486	0.0	491.3866412987214	465.0059671138031	0.0	528.5268514710699	558.9344936299699	0.0	511.33929761099847	578.9043769995254	0.0	507.77551717175606	695.071724164511	0.0	466.13967511945975	777.3821343712183	0.0	663.2749107249066	563.8004923818396	0.0	725.6684631709292	703.2257138245426	0.0	700.9557623645999	822.8471332139248	0.0
203	6.784106529209621	598.5288727231945	816.8436455298195	0.0	553.9313679036488	819.3788807862348	0.0	555.1093921094557	1008.4624074946114	0.0	600.1749628742721	1193.5191837172924	0.0	555.1331629043614	1252.2823676049982	0.0	545.7166155999466	1242.4433105632584	0.0	621.7437288399635	1222.6359766738801	0.0	643.9792169537847	808.1244102647033	0.0	630.626118041696	966.6874161399264	0.0	640.037149685877	1200.8315525944413	0.0	600.2650956806334	1262.5978561676582	0.0	616.6235590031699	1261.6826858804136	0.0	645.46332417105	1229.210902615555	0.0	583.3422745437816	567.0333001650051	0.0	499.14510733897254	461.99894308813293	0.0	536.2400123775745	558.873755351596	0.0	507.22327861587314	578.2495170752597	0.0	501.78890379323724	693.330718823132	0.0	464.5710619041863	779.35914630435	0.0	664.7279442457186	562.9109762452101	0.0	727.3273162542455	697.8877860793708	0.0	706.951000747433	815.8741215342388	0.0
204	6.817525773195876	598.8218285728442	814.3197133361406	0.0	553.5325507861255	816.7092598380714	0.0	554.6731832327856	1006.5849400230633	0.0	599.8324923923643	1192.837524382315	0.0	556.4064558305981	1251.7086865378903	0.0	545.818640368224	1242.1494293276912	0.0	620.9747389275759	1221.9702373825382	0.0	645.5474638821337	805.1454972514715	0.0	636.1794034551898	963.2620690954149	0.0	640.6087188073079	1197.4030314619893	0.0	607.9502622742441	1259.4264292106675	0.0	625.4066057017299	1260.536622237395	0.0	643.6797482794814	1223.898048808831	0.0	583.8930351538888	570.2524149321811	0.0	507.8861645056899	458.2249356973018	0.0	544.952566735865	559.2015200629389	0.0	500.96494485995044	579.3952002876249	0.0	495.557762985132	694.4322114526133	0.0	461.9181636927034	782.4779536924775	0.0	665.8143085108954	561.6173596098711	0.0	728.3511126167341	691.497767677782	0.0	712.8790399795591	809.0104048593997	0.0
205	6.850945017182131	598.8934149274432	811.4972313176642	0.0	552.7421079602957	813.3521236556455	0.0	554.4168209874048	1005.1099618843083	0.0	599.3495426102699	1191.274766504477	0.0	557.569909277034	1249.5536781399674	0.0	545.4224826458171	1240.3990548008874	0.0	619.6582652859671	1219.5697066758405	0.0	646.6253868106727	802.7203647898793	0.0	641.1871767401902	963.1875439904447	0.0	640.7365728254753	1192.7119235427442	0.0	613.225388014903	1256.1458798678427	0.0	631.9285650480198	1258.4550171590442	0.0	642.9868505537011	1217.7276948852368	0.0	583.3174251919573	571.1494341606576	0.0	517.0499096216322	456.16777178502036	0.0	551.4881655200212	559.4723484763117	0.0	495.6142871298194	580.5504634064481	0.0	490.3902710816916	696.0941327494784	0.0	458.9593692809291	785.0426220363089	0.0	666.940027608154	560.2892251802042	0.0	728.8876377577244	687.1137582862286	0.0	717.5341580466592	808.0952222143569	0.0
